<?xml version="1.0" encoding="UTF-8"?>
<svg id="Layer_2" data-name="Layer 2" xmlns="http://www.w3.org/2000/svg" viewBox="0 0 295.96 575.03">
  <defs>
    <style>
      .cls-1 {
        fill: #87524e;
      }

      .cls-1, .cls-2, .cls-3, .cls-4, .cls-5, .cls-6, .cls-7, .cls-8, .cls-9 {
        stroke-width: 0px;
      }

      .cls-2 {
        fill: #2e3d87;
      }

      .cls-3 {
        fill: #7a4743;
      }

      .cls-4 {
        fill: #f2e2c8;
      }

      .cls-5 {
        fill: #38313c;
      }

      .cls-6, .cls-10 {
        fill: #fff;
      }

      .cls-7 {
        fill: #e66e61;
      }

      .cls-8 {
        fill: #eeb940;
      }

      .cls-9 {
        fill: #f09631;
      }

      .cls-10 {
        stroke: #787877;
        stroke-miterlimit: 10;
        stroke-width: .99px;
      }

      .cls-11 {
        opacity: .46;
      }
    </style>
  </defs>
  <g id="Layer_1-2" data-name="Layer 1">
    <g>
      <g>
        <g>
          <g>
            <path class="cls-8" d="M283.22,443.82h-102.28c-7.04,0-12.74-5.71-12.74-12.74v-7.45c0-24.68,11.04-44.69,44.69-44.69h38.4c35.26,0,44.69,20.01,44.69,44.69v7.45c0,7.04-5.71,12.74-12.74,12.74Z"/>
            <g>
              <path class="cls-5" d="M193.88,442.92c-1.82-7.81-2.83-15.79-3.01-23.81s.45-15.97,1.89-23.82c.81-4.43,1.89-8.81,3.21-13.12.19-.62-.78-.88-.96-.27-2.37,7.71-3.92,15.65-4.67,23.68-.74,8.07-.66,16.21.26,24.26.51,4.49,1.28,8.94,2.31,13.34.15.63,1.11.36.96-.27h0Z"/>
              <path class="cls-5" d="M274,443.61c1.57-7.93,2.42-16.01,2.52-24.09s-.55-16.18-1.92-24.15c-.78-4.54-1.8-9.03-3.06-13.45-.18-.62-1.14-.36-.96.27,2.19,7.73,3.66,15.65,4.4,23.65.73,7.97.74,16.01.01,23.99-.41,4.54-1.07,9.06-1.95,13.54-.12.63.84.9.96.27h0Z"/>
            </g>
            <g>
              <path class="cls-5" d="M206.55,386.14c4.32-7.27,11.09-13.33,19.37-15.57,7.81-2.11,15.93-.13,22.44,4.52,4.04,2.88,7.37,6.68,9.91,10.93.33.55,1.19.05.86-.5-4.47-7.47-11.48-13.67-20.01-15.94s-16.62-.07-23.34,4.83c-4.11,2.99-7.5,6.87-10.09,11.23-.33.55.53,1.06.86.5h0Z"/>
              <path class="cls-5" d="M257.4,386.22c-.63.97-.71,2.24-.43,3.34.26,1.02.92,2.06,1.99,2.35,1.13.31,2.27-.32,2.93-1.22.78-1.05.91-2.47.42-3.67-.52-1.27-1.76-2.38-3.21-2.07-.63.14-.36,1.1.27.96.87-.19,1.59.59,1.94,1.29.43.86.4,1.9-.1,2.72-.38.61-1.11,1.17-1.84,1.04s-1.19-.88-1.38-1.54c-.26-.89-.23-1.92.29-2.71.35-.54-.51-1.04-.86-.5h0Z"/>
              <path class="cls-5" d="M205.32,384.92c-1.17.26-1.93,1.41-2.22,2.5-.32,1.22-.15,2.59.72,3.55.79.87,2.07,1.19,3.15.72s1.63-1.7,1.72-2.84c.11-1.29-.32-2.72-1.39-3.52-.22-.16-.56-.04-.68.18-.15.26-.04.52.18.68.61.45.88,1.4.9,2.19s-.2,1.76-.87,2.24c-.62.45-1.45.37-2.05-.12-.72-.58-.93-1.57-.79-2.45s.68-1.98,1.6-2.18c.63-.14.36-1.1-.27-.96h0Z"/>
              <path class="cls-5" d="M250.72,374.67v-3.94c0-.34.04-.59-.25-.84-.76-.65-1.73-1.15-2.6-1.64-.92-.52-1.86-1-2.82-1.43-1.85-.83-3.77-1.49-5.74-1.96-8.06-1.9-16.52-.27-23.51,4.1-.49.3-.61.49-.64,1.02l-.09,1.63c-.05.95-.11,1.9-.16,2.84-.04.64.96.64,1,0,.09-1.61.18-3.21.27-4.82l-.25.43c4.01-2.56,8.57-4.3,13.31-4.83s9.28.13,13.62,1.76c2.52.95,4.89,2.23,7.1,3.75l-.25-.43v4.34c0,.64,1,.64,1,0h0Z"/>
            </g>
          </g>
          <path class="cls-1" d="M204.12,244.31c5.96,22.08,8.96,35.5,13.89,56.52,1.83,7.8,7.23,29.82,8.87,37.61,1.88,8.9-5.5,14.21-10.09,1.54-3.72-10.25-7.61-17.99-11.1-27.04-9.54-24.72-19.36-44.07-25.26-72.2"/>
          <path class="cls-1" d="M81.85,538.89c.62,3.84,1.25,7.68,1.87,11.51.12.75.24,1.51.15,2.26-.38,2.93-3.75,4.52-5.05,7.19-.14.28-.26.59-.23.91.09,1,1.41,1.3,2.44,1.34,2.99.11,5.98.22,8.97.33,1.13.04,2.46-.01,3.09-.94.28-.42.36-.93.42-1.43.97-7.25,1.93-14.5,2.9-21.76"/>
          <g>
            <path class="cls-1" d="M163.09,538.89c-.61,3.84-1.23,7.68-1.84,11.51-.12.75-.24,1.51-.14,2.26.37,2.93,3.69,4.52,4.97,7.19.14.28.25.59.22.91-.09,1-1.39,1.3-2.4,1.34-2.94.11-5.88.22-8.82.33-1.11.04-2.42-.01-3.04-.94-.28-.42-.35-.93-.42-1.43-.95-7.25-1.9-14.5-2.85-21.76"/>
            <path class="cls-5" d="M193.1,573.99c-7.32.28-13.32.5-20.63.78-2.24.08-4.59.15-6.58-.89-1.1-.57-2.19-1.49-3.4-1.24-.94.19-1.59,1.03-2.45,1.45-.75.37-1.62.39-2.46.41-2.56.05-5.12.11-7.68.16-.84.02-1.77,0-2.41-.55-.75-.65-.79-1.78-.75-2.77.18-3.92.89-7.82,2.11-11.55.28-.85.69-1.8,1.54-2.06.78-.24,1.6.2,2.32.6,2.9,1.63,6.71,2.78,9.38.81.7-.51,1.27-1.21,2.07-1.54.88-.36,1.88-.21,2.82-.04,8.11,1.49,16.01,4.06,23.45,7.62,1.69.81,3.43,1.74,4.43,3.32,1,1.58.93,3.99-.64,5.02"/>
            <path class="cls-9" d="M178.11,559.57c-1.54,1.12-2.35,2.87-2.57,4.72-.03.27.25.5.5.5.3,0,.47-.23.5-.5.18-1.45.86-2.98,2.08-3.86.22-.16.33-.43.18-.68-.13-.22-.46-.34-.68-.18h0Z"/>
            <path class="cls-9" d="M171.41,557.53c-1.54,1.56-2.66,3.48-3.26,5.59-.18.62.79.88.96.27.55-1.94,1.59-3.71,3.01-5.15.45-.46-.25-1.17-.71-.71h0Z"/>
          </g>
          <path class="cls-5" d="M51.86,574.22c7.32.28,13.32.5,20.63.77,2.24.09,4.59.15,6.58-.89,1.1-.57,2.19-1.49,3.4-1.24.94.19,1.59,1.03,2.45,1.45.75.37,1.62.39,2.46.41,2.56.05,5.12.11,7.68.16.84.02,1.77,0,2.41-.55.75-.65.8-1.78.75-2.77-.18-3.92-.89-7.82-2.11-11.55-.28-.85-.69-1.8-1.54-2.06-.78-.24-1.6.2-2.32.6-2.9,1.63-6.71,2.78-9.38.81-.7-.51-1.27-1.21-2.07-1.54-.88-.36-1.88-.21-2.82-.04-8.11,1.49-16.01,4.06-23.45,7.62-1.69.81-3.43,1.74-4.43,3.32-1,1.58-.93,3.99.64,5.02"/>
          <g>
            <path class="cls-1" d="M107.3,214.32c-16.47-14.63-26.68-22.95-42.6-36.19-5.91-4.91-22.51-19-28.46-23.73-6.8-5.41-13.48-.7-4.39,8.79,7.36,7.68,12.57,14.49,19,21.47,17.56,19.06,30.59,36.18,52.09,53.24"/>
            <g>
              <path class="cls-1" d="M37.61,155.55c-3.82-4.16-4.4-7.72-5.86-11.58-1.04-2.74-2.56-5.22-4.07-7.67-2.43-3.96-4.86-7.93-7.29-11.89-.25-.41-.61-.88-1.02-.81-.57.11-.55,1.06-.39,1.73l1.78,7.39c.03.13-.09.23-.19.14-4.22-3.94-9.38-8.11-11.99-9.34-.95-.34-1.17.59-.66,1.44l10.03,11.37c.11.13-.02.32-.15.22l-8.91-7.01c-1.14-.9-2.33-1.82-3.63-2.25-.43-.14-.84.28-.7.78.33,1.22,1.17,2.12,2.05,3.03,5.12,5.34,8.61,9.1,8.5,9.38-.21.21-5.24-4.14-8.58-6.89-.74-.61-1.7-1.23-2.47-1.2-.77.03-.98.76-.49,1.48,2.63,3.89,5.45,6.85,8.93,9.74.13.11.03.32-.11.24,0,0-7.45-6.49-8.18-5.16-.58,1.05.99,2.73,1.97,3.75,5.36,5.6,13.6,12.83,20.26,16.27,4.14,2.14,5.41,3.82,6.19,4.77"/>
              <path class="cls-3" d="M28.96,154.76c-3.08-4.45-3.73-10.02-4.3-15.26-.05-.45-.76-.45-.71,0,.59,5.36,1.25,11.07,4.4,15.62.26.37.87.02.61-.36h0Z"/>
            </g>
          </g>
          <path class="cls-2" d="M135.27,365.83h-3.1l-21.4,89.01-11.37,85.01c-.08.59-.57,1.03-1.16,1.04l-17.98.5c-.88.02-1.6-.71-1.56-1.59l4.24-88.55,15.65-116.24,5.52-21.27,67.83,3.03,2.29,27.19-3.29,112.01-5.55,84.5c-.06.88-.81,1.56-1.69,1.53l-15.05-.52c-.86-.03-1.55-.72-1.58-1.58l-2.97-84.45-8.81-89.63Z"/>
          <path class="cls-5" d="M144.66,168.65c-.67-1.3-2.01-2.19-3.47-2.3s-2.97.66-3.81,1.89c-.26.38.36.73.61.36.7-1.03,1.95-1.64,3.19-1.54s2.31.88,2.86,1.95c.21.41.82.05.61-.36h0Z"/>
          <path class="cls-5" d="M159.42,170.32c.79-.96,2.05-1.5,3.29-1.31s2.26,1.03,2.72,2.15c.17.42.86.23.68-.19-.55-1.35-1.76-2.41-3.21-2.65s-3.03.33-3.98,1.49c-.29.35.21.85.5.5h0Z"/>
          <g class="cls-11">
            <path class="cls-4" d="M172.96,367.14c-4.56-4.42-7.48-10.29-8.82-16.46-.14-.63-1.11-.37-.97.27,1.37,6.33,4.4,12.38,9.08,16.9.47.45,1.18-.26.71-.71h0Z"/>
          </g>
          <g class="cls-11">
            <path class="cls-4" d="M107.51,348.13c-2.35,6.34-5.73,12.77-11.68,16.41-.55.34-.05,1.21.51.87,6.18-3.78,9.69-10.41,12.14-17.01.23-.61-.75-.87-.97-.27h0Z"/>
          </g>
          <g class="cls-11">
            <path class="cls-4" d="M99.26,532.92c-6.4.23-12.8.05-19.2.09-.65,0-.65,1.01,0,1.01,6.4-.03,12.81.15,19.2-.09.65-.02.65-1.03,0-1.01h0Z"/>
          </g>
          <g class="cls-11">
            <path class="cls-4" d="M164.57,534.68c-5.64-.08-11.28-.43-16.91-.73-.65-.03-.65.97,0,1.01,5.63.3,11.27.66,16.91.73.65,0,.65-1,0-1.01h0Z"/>
          </g>
          <path class="cls-4" d="M197.42,232.86c-10.19-7.82-18.13-13.43-33.76-15.01-7.96-.8-22-4.24-32.7-5.45-1.19-.13-26.39-7.44-27.45-6.86-.85.45-2.25-1.33-6.46,4.64-3.17,4.5-6.55,8.87-7.99,14.3-1.44,5.43-2.92,7.71.93,11.54,3.95,3.93,12.8,8.88,15.17,14.09,1.28,2.81.87,6.12.44,9.21-3.75,26.81-7.5,53.62-11.25,80.43-.26,1.83-.46,3.9.62,5.34,1.11,1.48,3.09,1.68,4.86,1.76,24.02,1.07,48.04,2.13,72.06,3.2,1.55.07,3.25.08,4.45-.98,1.36-1.22,1.54-3.36,1.62-5.26,1.01-25.4,4.68-51.88,4.9-77.3,3.37-3.71,1.61,5.98,6.09,4.08,2.1-.89,15.34-16.48,16.31-18.69,3.74-8.5-7.04-18.44-7.82-19.03Z"/>
          <g>
            <path id="hair" class="cls-5" d="M161.18,184.46c4.94-1.81,8.69-5.85,10.98-10.39,2.29-4.54,3.27-9.58,3.99-14.59.36-2.53.52-5.47-1.42-7.25-1-.92-2.38-1.33-3.7-1.72-6.17-1.79-10.74-2.7-17.14-3.29-6.41-.6-14.74-.8-20.36,2.14-.83.43-1.67.95-2.14,1.73-.48.78-.53,1.73-.58,2.64-.27,6.15-.31,12.5,2.04,18.26,2.35,5.76,7.65,10.84,14.09,11.35"/>
            <g id="head">
              <g>
                <path class="cls-1" d="M139.23,217.58c-1.62-1.04-2.42-2.96-2.04-4.84,1.21-6.1,3.3-16.26,4.1-20.49.05-.25.1-.5.24-.7.25-.34.7-.41,1.1-.44,3.35-.23,6.7.73,10.04.38,2.73-.29,5.53-1.44,8.15-.59.27.09.54.2.7.44.19.28.19.67.17,1.02-.09,1.56-.24,3.12-.4,4.68-.4,4.04-1.17,13.17-1.68,18.76-.16,1.73-1.24,3.24-2.85,3.89-2.14.87-5.39,1.79-8.87,1.35-3.32-.41-6.52-2.1-8.66-3.48Z"/>
                <path class="cls-3" d="M161.53,191.35c-.16-.24-.44-.36-.7-.44-2.62-.85-5.41.3-8.15.59-3.34.35-6.69-.61-10.04-.38-.4.03-.85.1-1.1.44-.15.2-.2.45-.24.7-.47,2.48-.94,4.97-1.42,7.45,2.65,2,5.66,3.42,8.89,3.86,4.42.61,9.22-.91,12.32-4.29.07-.74.15-1.48.22-2.22.15-1.56.31-3.12.4-4.68.02-.35.03-.74-.17-1.02Z"/>
              </g>
              <g>
                <path class="cls-1" d="M172.37,176.1c-1.24,14.73-12.92,25.77-22.43,24.97-9.51-.8-19.18-13.63-17.94-28.36,1.24-14.73,12.7-23.17,22.21-22.37,9.51.8,19.4,11.04,18.16,25.77Z"/>
                <g>
                  <path class="cls-1" d="M170.78,181.75c2.55-.51,4.87-2.39,5.28-4.84s-1.58-5.19-4.19-5.26"/>
                  <path class="cls-1" d="M133.25,178.59c-2.43-.93-4.4-3.17-4.4-5.66,0-2.48,2.42-4.85,5.01-4.49"/>
                </g>
              </g>
            </g>
            <g>
              <path class="cls-5" d="M147.24,163.64c.14.18-.05.48-.26.51s-.41-.1-.6-.22c-2.25-1.47-5.14-1.7-7.59-.61-.38.17-.76.37-1.16.35-.4-.02-.83-.35-.81-.8,0-.19.1-.37.2-.53.42-.67,1.09-1.1,1.78-1.4,2.22-.96,4.82-.71,6.82.67.75.51,1.43,1.22,1.7,2.15"/>
              <path class="cls-5" d="M157.84,164.53c-.17.15-.04.48.17.55.21.07.43-.03.63-.12,2.46-1.07,5.35-.82,7.59.66.34.23.69.49,1.09.54.4.05.87-.21.93-.65.02-.19-.03-.38-.11-.55-.31-.73-.9-1.26-1.52-1.67-2.02-1.32-4.64-1.5-6.83-.48-.82.38-1.62.96-2.03,1.83"/>
            </g>
            <g>
              <path class="cls-3" d="M168.05,182.87c-.2,2.34-2.35,4.07-4.8,3.86-2.46-.21-4.29-2.27-4.09-4.61.2-2.34,2.35-4.07,4.8-3.86,2.46.21,4.29,2.27,4.09,4.61Z"/>
              <path class="cls-3" d="M143.83,180.84c-.2,2.34-2.35,4.07-4.8,3.86-2.46-.21-4.29-2.27-4.09-4.61.2-2.34,2.35-4.07,4.8-3.86s4.29,2.27,4.09,4.61Z"/>
            </g>
            <g>
              <path class="cls-5" d="M163.8,171.48c-.12,1.46-.9,2.59-1.74,2.51-.84-.07-1.41-1.31-1.29-2.77.12-1.46.9-2.59,1.74-2.52.84.07,1.41,1.31,1.29,2.77Z"/>
              <path class="cls-5" d="M142.6,169.7c-.12,1.46-.9,2.59-1.74,2.51s-1.41-1.31-1.29-2.77c.12-1.46.9-2.59,1.74-2.51s1.41,1.31,1.29,2.77Z"/>
            </g>
            <g>
              <path class="cls-7" d="M157.08,188.93c-3.71,4.35-7.21,5.14-11.42,3.71-1.55-.53-3.8-3.41-4.27-5.27,4.97,3.33,10.38,4.01,15.79,1.28"/>
              <path class="cls-6" d="M157.08,188.93c-3.61,2.09-7.78,2.48-13.14.56-1.21-.44-2.4-1.19-2.93-2.32,5.06,2.16,11.29,2.74,16.6,1.28l-.53.48Z"/>
            </g>
            <path class="cls-5" d="M175.38,163.55c-6.08-1.38-11.5-5.64-14.48-11.39.08,2.38.6,4.74,1.53,6.9-11.22-2.24-22.89-2.02-34.07.66-.37.09-.78.18-1.12,0-.6-.3-.65-1.16-.6-1.86.4-5.45,2.02-11.08,5.78-14.88,1.97-1.99,4.43-3.36,6.97-4.42,8.56-3.57,18.52-3.62,26.72.64,8.2,4.27,14.32,13.02,15.02,22.66"/>
            <path class="cls-3" d="M151.72,167.21c-.7,3.3-1.4,6.59-2.09,9.89-.17.8-.34,1.61-.51,2.41-.12.59-.48,1.43-.33,2.04s.79.63,1.31.66c.85.05,1.71.09,2.56.14.64.04.64-.97,0-1-.69-.04-1.38-.08-2.07-.11-.2-.01-.41-.03-.61-.03-.08,0-.27-.08-.2.02-.1-.14.19-.9.23-1.09.3-1.41.6-2.81.89-4.22.6-2.81,1.19-5.63,1.79-8.44.13-.63-.83-.9-.96-.27h0Z"/>
          </g>
        </g>
        <path class="cls-1" d="M217.47,340.87c3.25,7.72,5.95,16.34,6.46,24.52.99-1.35,3.83-1.84,5.44-1.02,1.6.82,1.11,2.22.78,3.78-.24,1.12-1.1,2.23-2.4,2.5,1.5,2.48,5.34,3.2,8.63,2.94,1.7-.14,3.45-.49,4.73-1.44,2.51-1.87,2.24-5.35.63-7.83-1.61-2.48-4.22-4.37-6.18-6.66-1.48-1.73-2.57-3.68-3.6-5.64-3.38-6.45-4.51-13.45-6.66-20.26"/>
        <path class="cls-9" d="M66.34,560.66c1.22.88,1.9,2.41,2.08,3.86.03.27.21.5.5.5.24,0,.53-.23.5-.5-.23-1.85-1.04-3.61-2.57-4.72-.22-.16-.56-.04-.68.18-.15.25-.04.52.18.68h0Z"/>
        <path class="cls-9" d="M72.84,558.46c1.42,1.44,2.45,3.21,3.01,5.15.18.62,1.14.36.96-.27-.6-2.1-1.73-4.03-3.26-5.59-.45-.46-1.16.25-.71.71h0Z"/>
      </g>
      <g>
        <path class="cls-10" d="M99.89.5H23.43C10.77.5.5,10.77.5,23.43v66.26c0,12.67,10.27,22.94,22.94,22.94h50.08l33.39,36.62c1.31,1.43,3.67.22,3.27-1.68l-7.44-35.14c11.33-1.4,20.1-11.04,20.1-22.74V23.43c0-12.67-10.27-22.94-22.94-22.94Z"/>
        <path class="cls-8" d="M62.56,17.39c-13.06-.1-23.73,11.21-23.83,25.25-.11,14.05,23.25,51.49,23.25,51.49,0,0,23.92-37.09,24.03-51.14.11-14.04-10.39-25.51-23.45-25.61ZM62.28,54.63c-7.02-.05-12.67-5.89-12.62-13.04.05-7.15,5.79-12.9,12.81-12.85,7.02.05,12.67,5.89,12.62,13.04-.05,7.15-5.79,12.9-12.81,12.85Z"/>
      </g>
    </g>
  </g>
</svg>