<?xml version="1.0" encoding="UTF-8"?>
<svg id="Layer_2" xmlns="http://www.w3.org/2000/svg" viewBox="0 0 476.57 415.11">
  <defs>
    <style>
      .cls-1 {
        fill: #158b51;
      }
    </style>
  </defs>
  <g id="Layer_1-2" data-name="Layer_1">
    <path class="cls-1" d="M338.45,0c-6.04,0-12.02.37-17.87,1.12H30.39c-8.41,0-16,3.42-21.48,8.9C3.43,15.51,0,23.1,0,31.51c0,16.75,13.58,30.39,30.39,30.39h192.86c-3.24,4.86-6.16,9.9-8.72,15.19h-115.76c-8.41,0-16,3.42-21.48,8.9-5.48,5.48-8.9,13.08-8.9,21.48,0,16.75,13.58,30.39,30.39,30.39h101.57v.25c0,3.74.06,7.47.25,11.15h-29.64c-8.41,0-16,3.42-21.48,8.84-5.48,5.54-8.9,13.14-8.9,21.55,0,16.75,13.58,30.39,30.39,30.39h41.85c25.59,71.92,81.34,147.29,129.09,205.06,48.25-58.84,134.69-164.27,134.69-276.99C476.57,61.84,414.73,0,338.45,0ZM384.53,259.24c-8.66,7.47-22.11,12.52-33.75,12.52-26.96,0-45.83-19.12-45.83-46.02v-60.84c0-1.37-1.06-2.43-2.43-2.43h-14.01c-1.31,0-2.43-1.12-2.43-2.43v-32.63c0-1.31,1.12-2.43,2.43-2.43h14.01c1.37,0,2.43-1.06,2.43-2.43,0-10.21,4.11-19.43,10.84-26.09,6.73-6.66,15.94-10.84,26.15-10.84h5.54c1.37,0,2.43,1.06,2.43,2.43v34.5c0,1.37,1.12,2.43,2.43,2.43h24.85c1.31,0,2.43,1.12,2.43,2.43v32.63c0,1.31-1.12,2.43-2.43,2.43h-24.85c-1.31,0-2.43,1.06-2.43,2.43v52.25c0,9.15,5.54,15.51,13.08,15.51,3.92,0,7.91-1.12,10.77-2.8,1.37-.81,3.11,0,3.55,1.49l7.91,25.34c.31.87.06,1.93-.69,2.55Z"/>
  </g>
</svg>